<?xml version="1.0" standalone="no"?>
<!DOCTYPE svg PUBLIC "-//W3C//DTD SVG 20010904//EN"
 "http://www.w3.org/TR/2001/REC-SVG-20010904/DTD/svg10.dtd">
<svg version="1.0" xmlns="http://www.w3.org/2000/svg"
 width="400.000000pt" height="467.000000pt" viewBox="0 0 400.000000 467.000000"
 preserveAspectRatio="xMidYMid meet">
<metadata>
Created by potrace 1.16, written by Peter Selinger 2001-2019
</metadata>
<g transform="translate(0.000000,467.000000) scale(0.100000,-0.100000)"
fill="#000000" stroke="none">
<path d="M1940 4134 c-186 -303 -277 -418 -416 -525 -49 -38 -53 -44 -37 -53
10 -6 86 -13 170 -16 83 -3 155 -8 159 -12 29 -29 -188 -297 -326 -403 -69
-53 -144 -95 -268 -151 -53 -24 -97 -49 -97 -56 0 -21 96 -86 173 -118 39 -17
129 -47 200 -67 70 -20 129 -37 131 -39 6 -6 -43 -78 -102 -149 -148 -179
-382 -336 -675 -454 -97 -39 -97 -38 19 -106 139 -82 320 -149 475 -176 l66
-11 -29 -30 c-37 -39 -192 -155 -270 -202 -86 -51 -326 -165 -455 -216 -60
-23 -108 -45 -108 -49 0 -12 184 -124 275 -167 277 -132 514 -124 923 30 68
25 129 46 137 46 31 0 21 -99 -14 -133 -11 -11 -50 -28 -88 -37 -57 -14 -69
-20 -71 -39 -2 -12 17 -144 43 -294 34 -198 51 -275 63 -284 18 -14 368 -19
388 -5 12 7 104 514 104 570 0 38 -9 44 -80 53 -75 11 -110 48 -110 119 0 38
4 50 15 50 8 0 79 -23 157 -51 291 -105 387 -125 561 -117 127 6 245 40 371
106 78 41 199 128 221 159 13 18 8 21 -83 53 -116 40 -309 122 -372 158 -134
77 -370 249 -370 271 0 5 50 18 111 30 204 41 369 110 466 197 l48 42 -55 25
c-182 81 -363 174 -435 222 -93 62 -259 229 -324 326 -23 34 -40 63 -39 64 2
2 66 19 143 39 77 20 172 51 210 70 66 32 175 109 175 125 0 4 -26 15 -57 25
-79 24 -229 96 -300 143 -125 82 -276 251 -342 380 l-21 42 33 5 c17 3 84 8
147 12 63 3 128 11 143 17 l28 12 -75 63 c-145 121 -282 295 -382 484 -85 161
-70 159 -154 22z"/>
</g>
</svg>
